<svg width="13" height="13" viewBox="0 0 13 13" fill="none" xmlns="http://www.w3.org/2000/svg">
<path d="M0.706956 10.5343C0.316431 10.9249 0.316431 11.558 0.706956 11.9486C1.09748 12.3391 1.73064 12.3391 2.12117 11.9486L0.706956 10.5343ZM12.2416 1.41387C12.2416 0.861584 11.7939 0.413869 11.2416 0.413869L2.24165 0.413869C1.68936 0.413869 1.24165 0.861584 1.24165 1.41387C1.24165 1.96615 1.68936 2.41387 2.24165 2.41387L10.2416 2.41387L10.2416 10.4139C10.2416 10.9662 10.6894 11.4139 11.2416 11.4139C11.7939 11.4139 12.2416 10.9662 12.2416 10.4139L12.2416 1.41387ZM2.12117 11.9486L11.9488 2.12098L10.5345 0.706762L0.706956 10.5343L2.12117 11.9486Z" fill="white"/>
</svg>
