<svg width="305" height="46" viewBox="0 0 305 46" fill="none" xmlns="http://www.w3.org/2000/svg">
<path d="M11.7199 0.071991V26.952C11.7199 29.64 12.3812 31.7093 13.7039 33.16C15.0265 34.6107 16.9679 35.336 19.5279 35.336C22.0879 35.336 24.0505 34.6107 25.4159 33.16C26.7812 31.7093 27.4639 29.64 27.4639 26.952V0.071991H38.4079V26.888C38.4079 30.8987 37.5545 34.2907 35.8479 37.064C34.1412 39.8373 31.8372 41.928 28.9359 43.336C26.0772 44.744 22.8772 45.448 19.3359 45.448C15.7945 45.448 12.6159 44.7653 9.79988 43.4C7.02655 41.992 4.82921 39.9013 3.20788 37.128C1.58655 34.312 0.775879 30.8987 0.775879 26.888V0.071991H11.7199Z" fill="white"/>
<path d="M57.0369 36.552H71.3729V45H46.0929V0.071991H57.0369V36.552Z" fill="white"/>
<path d="M108.913 0.071991V8.83999H97.0089V45H86.0649V8.83999H74.1609V0.071991H108.913Z" fill="white"/>
<path d="M125.349 0.071991V45H114.405V0.071991H125.349Z" fill="white"/>
<path d="M184.16 0.071991V45H173.216V18.056L163.168 45H154.336L144.224 17.992V45H133.28V0.071991H146.208L158.816 31.176L171.296 0.071991H184.16Z" fill="white"/>
<path d="M219.998 37.064H203.23L200.542 45H189.086L205.342 0.071991H218.014L234.27 45H222.686L219.998 37.064ZM217.182 28.616L211.614 12.168L206.11 28.616H217.182Z" fill="white"/>
<path d="M271.538 0.071991V8.83999H259.634V45H248.69V8.83999H236.786V0.071991H271.538Z" fill="white"/>
<path d="M287.974 8.83999V17.928H302.63V26.376H287.974V36.232H304.55V45H277.03V0.071991H304.55V8.83999H287.974Z" fill="white"/>
</svg>
